:SAMPLES-PER-SECOND 30
:FULLY-SPECIFIED
:DEGREES
13
root  34.69276128 36.50288619 -14.96593595 8.285124779 -5.640106201 3.643625021
lowerback  -7.624879837 -1.161370039 -1.048020601
upperback  -4.176449776 -1.049729943 -2.868275642
thorax  -0.07243029773 -0.3640030026 -2.448689938
lowerneck  -5.328619957 -14.18659973 -11.88770008
upperneck  13.25710011 -19.41609955 10.96759987
head  7.171539783 -9.16767025 3.540250063
lclavicle  0 -4.497500157e-015 -2.743230041e-014
lhumerus  -49.44929886 27.44499969 64.66069794
lradius  5.228657756e-007 -6.507048965e-006 30.43809891
lwrist  4.824992743e-007 -3.790274832e-007 -27.51079941
lhand  -4.420116695e-031 -36.97710037 -10.6882
lfingers  90 7.125020027 -90
lthumb  94.85499689 -25.52104711 101.1526354
rclavicle  0 -4.497500157e-015 -2.743230041e-014
rhumerus  -62.02819443 -39.85509872 -46.06110382
rradius  -5.16745672e-007 2.214343908e-008 33.57189941
rwrist  -0.0001064338358 0.02074225061 -143.5359955
rhand  -1.767201528e-031 -2.46784997 -7.832709789
rfingers  -90 -7.125020027 -90
rthumb  -86.60806753 -7.850481319 -66.54259248
rfemur  -12.64931965 16.54539871 13.21116734
rtibia  -1.536198616 -1.073859692 21.47593689
rfoot  -0.03151654825 -22.12734985 -36.25180817
rtoes  4.089607868 19.59419483 -102.0353759
lfemur  -8.358130455 -16.92478943 -20.06933975
ltibia  2.205015659 -1.187193394 15.34901428
lfoot  0.9468845725 -23.3257885 37.81027222
ltoes  -8.664161074 -18.09554429 -116.132542
14
root  34.69426914 36.50280509 -14.96618827 8.273312569 -5.637344837 3.669763565
lowerback  -7.666579723 -1.168190002 -1.049170256
upperback  -4.141620159 -1.059499979 -2.868605375
thorax  -0.01360919978 -0.3698750138 -2.443030119
lowerneck  -5.276579857 -14.24839973 -11.89379978
upperneck  13.11660004 -19.50159836 10.98820019
head  7.130099773 -9.215109825 3.541680098
lclavicle  0 -4.497500157e-015 -2.743230041e-014
lhumerus  -49.39030075 27.5454998 64.63899994
lradius  5.228657756e-007 -6.507048965e-006 30.42140007
lwrist  4.824992743e-007 -3.790274832e-007 -27.58370018
lhand  -4.417297195e-031 -36.92850113 -10.7020998
lfingers  90 7.125020027 -90
lthumb  94.83520666 -25.53638232 101.1020268
rclavicle  0 -4.497500157e-015 -2.743230041e-014
rhumerus  -61.8031044 -39.78179932 -46.32229614
rradius  -5.16745672e-007 2.214343908e-008 33.68170166
rwrist  -0.0001064338358 0.02074225061 -143.647995
rhand  -1.767294701e-031 -2.5369699 -7.936399937
rfingers  -90 -7.125020027 -90
rthumb  -86.66210853 -7.751509935 -66.61550028
rfemur  -12.64577961 16.53666878 13.18994045
rtibia  -1.550716043 -1.097680688 21.4951725
rfoot  -0.03989493847 -22.15980911 -36.24326706
rtoes  4.110411721 19.5900051 -102.0974174
lfemur  -8.318897247 -16.98462677 -20.12818336
ltibia  2.238585949 -1.237750053 15.30927753
lfoot  0.9393315911 -23.20732689 37.82714081
ltoes  -8.671041421 -18.09233415 -116.1546955
15
root  34.69459954 36.50285616 -14.96752191 8.266014099 -5.628859997 3.695799828
lowerback  -7.649490356 -1.164279938 -1.002069831
upperback  -4.14756012 -1.056790113 -2.869453669
thorax  -0.03035639971 -0.3732791543 -2.48187995
lowerneck  -5.178549767 -14.32240009 -11.88010025
upperneck  12.97970009 -19.5999012 10.94649982
head  7.074810028 -9.273960114 3.523059845
lclavicle  0 -4.497500157e-015 -2.743230041e-014
lhumerus  -49.36999893 27.46960068 64.68219757
lradius  5.228657756e-007 -6.507048965e-006 30.44930077
lwrist  4.824992743e-007 -3.790274832e-007 -27.54120064
lhand  -4.415618017e-031 -36.8995018 -10.71930027
lfingers  90 7.125020027 -90
lthumb  94.82525103 -25.5543446 101.0725427
rclavicle  0 -4.497500157e-015 -2.743230041e-014
rhumerus  -61.66759872 -39.65840149 -46.54109573
rradius  -5.16745672e-007 2.214343908e-008 33.85369873
rwrist  -0.0001064338358 0.02074225061 -143.9680023
rhand  -1.767463151e-031 -2.657360077 -8.024319649
rfingers  -90 -7.125020027 -90
rthumb  -86.71858655 -7.664238679 -66.73734032
rfemur  -12.67046547 16.57723236 13.17148685
rtibia  -1.571905732 -1.08567524 21.5574913
rfoot  -0.07872356474 -22.13774109 -36.29732132
rtoes  4.091489529 19.59381679 -102.0409869
lfemur  -8.281635284 -16.97233582 -20.1718483
ltibia  2.272949219 -1.241616368 15.24335861
lfoot  0.9262627959 -23.17004013 37.81009674
ltoes  -8.70464505 -18.07660984 -116.2629481
16
root  34.69623355 36.50421383 -14.96944878 8.284804344 -5.655451775 3.689747095
lowerback  -7.598169804 -1.160599947 -1.007619619
upperback  -4.162380219 -1.053840041 -2.870434284
thorax  -0.07379870117 -0.3745592833 -2.480000019
lowerneck  -5.065639973 -14.38309956 -11.91940022
upperneck  12.87100029 -19.6792984 10.91800022
head  7.030799866 -9.324919701 3.518690109
lclavicle  0 -4.497500157e-015 -2.743230041e-014
lhumerus  -49.39789963 27.43050003 64.72219849
lradius  5.228657756e-007 -6.507048965e-006 30.46839905
lwrist  4.824992743e-007 -3.790274832e-007 -27.48660088
lhand  -0 -36.88869858 -10.6729002
lfingers  90 7.125020027 -90
lthumb  94.81034016 -25.50918758 101.0567914
rclavicle  0 -4.497500157e-015 -2.743230041e-014
rhumerus  -61.53739929 -39.54230118 -46.69189835
rradius  -5.16745672e-007 2.214343908e-008 34.0182991
rwrist  -0.0001064338358 0.02074225061 -144.0919952
rhand  -1.76731903e-031 -2.554709911 -8.057049751
rfingers  -90 -7.125020027 -90
rthumb  -86.71352048 -7.639860634 -66.63920388
rfemur  -12.70828056 16.5228405 13.17127895
rtibia  -1.572764635 -1.106710911 21.57007599
rfoot  -0.05271541327 -22.17830849 -36.1780777
rtoes  4.101608166 19.59178079 -102.0711618
lfemur  -8.290272713 -17.01280785 -20.15936852
ltibia  2.272978544 -1.220837831 15.23001766
lfoot  0.9622280002 -23.20437813 37.93889236
ltoes  -8.757934048 -18.05151712 -116.4348035
